# xmcd CD database file
#
# Track frame offsets:
#	150
#	16547
#	44705
#	72817
#	91255
#	113050
#	134547
#	156182
#	173132
#	191880
#	208462
#
# Disc length: 3003 seconds
#
# Revision: 1
# Processed by: cddbd v1.4PL0 Copyright (c) Steve Scherf et al.
# Submitted via: CDex 1.50beta10
#
DISCID=9b0bb90b
DTITLE=Vance Kelly - Joyriding In The Subway
DYEAR=1995
DGENRE=Blues
TTITLE0=Joyriding In The Subway
TTITLE1=Foot Loose And Fancy Free
TTITLE2=All Your Love
TTITLE3=Are You Serious
TTITLE4=Steal Away
TTITLE5=Who Called The Dog Pound
TTITLE6=Move To The Other Side Of The Room
TTITLE7=This Blues Is Killin' Me
TTITLE8=From The Heart
TTITLE9=I Got A Blues Attitude
TTITLE10=I Can't Win From Losing
EXTD=YEAR: 1995
EXTT0=
EXTT1=
EXTT2=
EXTT3=
EXTT4=
EXTT5=
EXTT6=
EXTT7=
EXTT8=
EXTT9=
EXTT10=
PLAYORDER=
